<svg id="Layer_1" enable-background="new 0 0 512 512" height="512" viewBox="0 0 512 512" width="512" xmlns="http://www.w3.org/2000/svg"><g><g><g><g id="XMLID_1775_"><g id="XMLID_1776_"><g id="XMLID_1777_"><g id="XMLID_1778_"><g id="XMLID_1779_"><g id="XMLID_1780_"><g id="XMLID_1781_"><g id="XMLID_1782_"><g id="XMLID_1783_"><g id="XMLID_1784_"><g id="XMLID_1785_"><g id="XMLID_1786_"><g id="XMLID_1787_"><g id="XMLID_1788_"><g id="XMLID_1789_"><circle cx="256" cy="256" fill="#4f4359" r="256"/></g></g></g></g></g></g></g></g></g></g></g></g></g></g></g></g></g><path d="m511.98 257.604-125.738-125.737-254.376 254.376 125.737 125.737c140.11-.862 253.515-114.266 254.377-254.376z" fill="#372a44"/><g><g><g><g id="XMLID_1880_"><g id="XMLID_1881_"><g id="XMLID_1882_"><g id="XMLID_1883_"><g id="XMLID_1891_"><g id="XMLID_1892_"><g id="XMLID_1893_"><g id="XMLID_1894_"><g id="XMLID_1933_"><g id="XMLID_1934_"><g id="XMLID_1935_"><g id="XMLID_1936_"><g id="XMLID_1937_"><g id="XMLID_1938_"><g id="XMLID_1939_"><circle cx="255.999" cy="256" fill="#fed940" r="179.923"/></g></g></g></g></g></g></g></g></g></g></g></g></g></g></g></g></g><g><g><g id="XMLID_1895_"><g id="XMLID_1896_"><g id="XMLID_1897_"><g id="XMLID_1898_"><g id="XMLID_1899_"><g id="XMLID_1900_"><g id="XMLID_1917_"><g id="XMLID_1926_"><g id="XMLID_1927_"><g id="XMLID_1928_"><g id="XMLID_1929_"><g id="XMLID_1930_"><g id="XMLID_1931_"><g id="XMLID_1932_"><g><path d="m435.923 256c0 99.367-80.557 179.924-179.924 179.924v-359.848c99.368 0 179.924 80.557 179.924 179.924z" fill="#ffc024"/></g></g></g></g></g></g></g></g></g></g></g></g></g></g></g></g></g></g><g><g><path d="m215.704 162.738c-22.855-8.029-32.283 13.78-32.283 13.78s-9.428-21.809-32.283-13.78c-23.632 8.302-32.283 57.98 32.283 83.262 64.566-25.282 55.915-74.961 32.283-83.262z" fill="#ff6643"/></g><g><path d="m360.863 162.738c-22.855-8.029-32.283 13.78-32.283 13.78s-9.428-21.809-32.283-13.78c-23.633 8.302-32.283 57.98 32.283 83.262 64.566-25.282 55.916-74.961 32.283-83.262z" fill="#ff3b3b"/></g></g><path d="m159.464 293.081-3.057-1.081c46.029 104 153.157 104 199.186 0l-3.057 1.081c-63.382 22.406-129.69 22.406-193.072 0z" fill="#7f6866"/><path d="m355.59 292c-23.01 52-61.3 78-99.59 78v-60.11c32.42 0 64.84-5.61 96.54-16.81z" fill="#634c4c"/></g></svg>